<svg width="319" height="241" viewBox="0 0 319 241" fill="none" xmlns="http://www.w3.org/2000/svg">
<path d="M139.51 111.471L121.774 111.534L121.957 169.051L139.694 168.987C146.627 168.987 152.208 156.067 152.152 140.185C152.096 124.304 146.444 111.447 139.51 111.471Z" fill="#231F20"/>
<path d="M121.949 169.449C121.845 169.445 121.745 169.402 121.67 169.33C121.596 169.256 121.553 169.156 121.551 169.051L121.376 111.534C121.376 111.429 121.418 111.327 121.492 111.253C121.567 111.178 121.668 111.136 121.774 111.136L139.51 111.073C143.021 111.073 146.301 114.137 148.753 119.702C151.205 125.267 152.502 132.439 152.526 140.185C152.582 156.258 146.81 169.361 139.67 169.385L121.933 169.449H121.949ZM122.172 111.932L122.347 168.645L139.694 168.589C146.397 168.589 151.81 155.852 151.754 140.185C151.754 132.559 150.417 125.394 148.052 120.02C145.736 114.766 142.711 111.869 139.534 111.869L122.172 111.932Z" fill="#231F20"/>
<path d="M121.936 169.056C128.869 169.035 134.452 156.145 134.405 140.264C134.358 124.384 128.699 111.527 121.765 111.547C114.832 111.568 109.249 124.458 109.297 140.339C109.344 156.219 115.003 169.076 121.936 169.056Z" fill="#231F20"/>
<path d="M121.933 169.449C118.422 169.449 115.135 166.384 112.683 160.819C110.231 155.255 108.933 148.082 108.909 140.336C108.861 124.264 114.633 111.16 121.774 111.136C125.293 111.136 128.572 114.201 131.024 119.766C133.476 125.33 134.774 132.503 134.798 140.249C134.845 156.322 129.082 169.417 121.941 169.449H121.933ZM121.79 111.932C115.087 111.932 109.673 124.67 109.721 140.336C109.721 147.963 111.067 155.12 113.431 160.493C115.795 165.867 118.773 168.653 121.949 168.653C128.652 168.653 134.065 155.916 134.018 140.249C134.018 132.622 132.68 125.458 130.308 120.084C127.999 114.83 124.974 111.932 121.79 111.932Z" fill="#231F20"/>
<path d="M121.916 162.241C127.205 162.226 131.463 152.39 131.427 140.273C131.392 128.156 127.075 118.346 121.786 118.362C116.496 118.377 112.238 128.213 112.274 140.33C112.31 152.447 116.627 162.257 121.916 162.241Z" fill="white"/>
<path d="M121.917 162.595C119.21 162.595 116.687 160.207 114.808 155.971C112.929 151.736 111.942 146.235 111.918 140.328C111.918 128.029 116.313 118.038 121.79 117.99C124.496 117.99 127.02 120.339 128.907 124.606C130.793 128.873 131.773 134.35 131.789 140.257C131.789 152.556 127.402 162.547 121.917 162.595ZM121.806 118.715C116.719 118.715 112.619 128.427 112.659 140.32C112.659 146.132 113.678 151.585 115.477 155.685C117.276 159.785 119.529 161.87 121.925 161.87C127.004 161.87 131.104 152.158 131.064 140.257C131.064 134.445 130.045 128.992 128.246 124.9C126.447 120.809 124.21 118.715 121.806 118.715Z" fill="#231F20"/>
<path d="M185.906 111.312L168.169 111.367L168.352 168.884L186.089 168.82C193.023 168.82 198.603 155.9 198.548 140.018C198.492 124.136 192.84 111.288 185.906 111.312Z" fill="#231F20"/>
<path d="M168.352 169.282C168.299 169.283 168.246 169.272 168.197 169.252C168.147 169.231 168.103 169.201 168.066 169.162C167.994 169.088 167.954 168.988 167.954 168.884L167.771 111.383C167.771 111.277 167.813 111.175 167.887 111.099C167.962 111.023 168.063 110.979 168.169 110.977L185.906 110.921C189.448 110.921 192.72 113.97 195.172 119.551C197.624 125.131 198.922 132.288 198.946 140.026C199.001 156.107 193.23 169.202 186.089 169.226L168.352 169.29V169.282ZM168.567 111.765L168.742 168.486L186.089 168.422C192.792 168.422 198.205 155.685 198.15 140.026C198.15 132.392 196.812 125.235 194.448 119.861C192.083 114.488 189.106 111.71 185.93 111.71L168.567 111.765Z" fill="#231F20"/>
<path d="M168.331 168.894C175.264 168.874 180.847 155.983 180.8 140.103C180.752 124.222 175.094 111.365 168.16 111.386C161.227 111.406 155.644 124.297 155.691 140.177C155.738 156.058 161.397 168.915 168.331 168.894Z" fill="#231F20"/>
<path d="M168.328 169.282C164.818 169.282 161.53 166.217 159.078 160.652C156.626 155.088 155.328 147.915 155.305 140.177C155.257 124.097 161.028 111.001 168.169 110.969C171.688 110.969 174.968 114.034 177.42 119.599C179.872 125.163 181.169 132.336 181.193 140.082C181.241 156.155 175.477 169.258 168.336 169.282H168.328ZM168.185 111.765C161.482 111.765 156.069 124.503 156.117 140.169C156.117 147.796 157.462 154.961 159.826 160.334C162.143 165.588 165.168 168.486 168.344 168.486C175.047 168.486 180.461 155.749 180.413 140.082C180.413 132.455 179.076 125.299 176.711 119.925C174.347 114.552 171.369 111.765 168.185 111.765Z" fill="#231F20"/>
<path d="M168.31 162.08C173.6 162.064 177.858 152.229 177.822 140.112C177.786 127.994 173.469 118.184 168.18 118.2C162.891 118.216 158.633 128.051 158.669 140.168C158.705 152.285 163.021 162.095 168.31 162.08Z" fill="white"/>
<path d="M168.313 162.428C165.606 162.428 163.082 160.039 161.204 155.812C159.325 151.585 158.338 146.068 158.314 140.161C158.314 127.862 162.708 117.871 168.185 117.823C170.892 117.823 173.415 120.172 175.302 124.447C177.189 128.722 178.168 134.183 178.184 140.09C178.184 152.389 173.798 162.38 168.313 162.428ZM168.201 118.548C163.114 118.548 159.014 128.26 159.054 140.153C159.054 145.965 160.073 151.418 161.872 155.51C163.671 159.601 165.916 161.695 168.321 161.695C173.4 161.695 177.499 151.983 177.468 140.09C177.468 134.278 176.441 128.825 174.641 124.725C172.842 120.625 170.645 118.548 168.201 118.548Z" fill="#231F20"/>
<path d="M251.129 111.081L233.392 111.144L233.567 168.653L251.312 168.589C258.246 168.589 263.818 155.669 263.77 139.787C263.723 123.905 258.062 111.057 251.129 111.081Z" fill="#231F20"/>
<path d="M233.535 169.051C233.431 169.052 233.331 169.012 233.257 168.94C233.182 168.863 233.139 168.76 233.137 168.653L232.962 111.144C232.961 111.092 232.97 111.041 232.989 110.993C233.009 110.944 233.037 110.9 233.074 110.863C233.11 110.826 233.153 110.797 233.201 110.777C233.249 110.757 233.3 110.746 233.352 110.746L251.097 110.683C254.615 110.683 257.895 113.74 260.347 119.312C262.799 124.885 264.097 132.049 264.121 139.787C264.176 155.868 258.405 168.964 251.264 168.987L233.519 169.051H233.535ZM233.758 111.534L233.933 168.255L251.272 168.191C257.975 168.191 263.388 155.454 263.34 139.795C263.34 132.161 262.003 125.004 259.639 119.631C257.274 114.257 254.297 111.479 251.113 111.479L233.758 111.534Z" fill="#231F20"/>
<path d="M233.552 168.669C240.486 168.648 246.068 155.758 246.021 139.877C245.974 123.997 240.315 111.14 233.382 111.161C226.448 111.181 220.866 124.071 220.913 139.952C220.96 155.833 226.619 168.69 233.552 168.669Z" fill="#231F20"/>
<path d="M233.535 169.051C230.017 169.051 226.737 165.986 224.285 160.422C221.833 154.857 220.535 147.684 220.511 139.947C220.464 123.866 226.227 110.77 233.368 110.746C236.879 110.746 240.167 113.803 242.618 119.376C245.07 124.948 246.368 132.113 246.392 139.851C246.44 155.932 240.676 169.027 233.527 169.051H233.535ZM233.392 111.542C226.689 111.542 221.276 124.28 221.323 139.939C221.323 147.565 222.661 154.73 225.033 160.103C227.405 165.477 230.351 168.255 233.535 168.255C240.238 168.255 245.652 155.518 245.604 139.851C245.604 132.225 244.258 125.068 241.894 119.694C239.53 114.321 236.584 111.542 233.408 111.542H233.392Z" fill="#231F20"/>
<path d="M233.058 162.547C238.347 162.547 242.634 152.724 242.634 140.607C242.634 128.49 238.347 118.667 233.058 118.667C227.769 118.667 223.481 128.49 223.481 140.607C223.481 152.724 227.769 162.547 233.058 162.547Z" fill="white"/>
<path d="M233.535 162.197C230.829 162.197 228.305 159.809 226.426 155.581C224.548 151.354 223.552 145.845 223.537 139.93C223.497 127.639 227.931 117.64 233.408 117.593C236.115 117.593 238.638 119.941 240.517 124.216C242.396 128.491 243.383 133.952 243.407 139.867C243.446 152.158 239.012 162.157 233.535 162.197ZM233.424 118.325C228.345 118.325 224.245 128.037 224.285 139.93C224.285 145.742 225.304 151.195 227.103 155.287C228.902 159.379 231.147 161.472 233.551 161.472C238.638 161.472 242.738 151.76 242.698 139.867C242.698 134.055 241.679 128.602 239.88 124.51C238.081 120.419 235.828 118.325 233.424 118.325Z" fill="#231F20"/>
<path d="M83.7531 111.67L66.0165 111.733L66.1996 169.242L83.9362 169.178C90.8701 169.178 96.4506 156.266 96.4028 140.384C96.355 124.502 90.687 111.646 83.7531 111.67Z" fill="#231F20"/>
<path d="M66.1996 169.64C66.0957 169.641 65.9958 169.601 65.921 169.529C65.8825 169.492 65.8521 169.447 65.8315 169.398C65.811 169.349 65.8008 169.296 65.8016 169.242L65.6185 111.733C65.6185 111.628 65.6604 111.527 65.7351 111.452C65.8097 111.377 65.9109 111.335 66.0165 111.335L83.7531 111.272C87.2638 111.272 90.5516 114.337 93.0036 119.901C95.4555 125.466 96.7531 132.638 96.777 140.376C96.8247 156.457 91.0532 169.553 83.9124 169.577L66.1757 169.64H66.1996ZM66.4145 112.131L66.5976 168.844L83.9362 168.78C90.6392 168.78 96.0525 156.043 96.0048 140.384C96.0048 132.758 94.6594 125.593 92.2951 120.22C89.9785 114.966 86.9534 112.068 83.777 112.068L66.4145 112.131Z" fill="#231F20"/>
<path d="M66.1874 169.245C73.1209 169.225 78.7033 156.334 78.6562 140.454C78.6091 124.573 72.9503 111.716 66.0168 111.737C59.0834 111.757 53.5009 124.648 53.548 140.528C53.5951 156.409 59.254 169.266 66.1874 169.245Z" fill="#231F20"/>
<path d="M66.1757 169.64C62.665 169.64 59.3852 166.575 56.9332 161.011C54.4813 155.446 53.1837 148.273 53.1598 140.536C53.1041 124.455 58.8757 111.359 66.0165 111.335C69.5272 111.335 72.807 114.4 75.259 119.965C77.7109 125.53 79.0085 132.702 79.0403 140.44C79.0881 156.521 73.3165 169.616 66.1757 169.64ZM66.0404 112.132C59.3374 112.132 53.9241 124.869 53.9798 140.528C53.9798 148.162 55.3172 155.319 57.6815 160.692C60.0459 166.066 63.0232 168.844 66.1996 168.844C72.9026 168.844 78.3159 156.107 78.2681 140.448C78.2681 132.814 76.9228 125.657 74.5584 120.283C72.1941 114.91 69.2167 112.132 66.0404 112.132Z" fill="#231F20"/>
<path d="M66.1672 162.431C71.4563 162.415 75.7149 152.579 75.6789 140.462C75.643 128.345 71.3262 118.535 66.037 118.551C60.7479 118.567 56.4894 128.402 56.5254 140.519C56.5613 152.636 60.8781 162.446 66.1672 162.431Z" fill="white"/>
<path d="M66.1598 162.794C63.4531 162.794 60.9296 160.406 59.0508 156.171C57.1721 151.935 56.1849 146.411 56.169 140.52C56.169 128.228 60.5554 118.229 66.0404 118.182C68.747 118.182 71.2706 120.57 73.1494 124.805C75.0281 129.04 76.0152 134.541 76.0312 140.456C76.0312 152.747 71.6448 162.746 66.1598 162.794ZM66.0563 118.914C60.9773 118.914 56.8696 128.626 56.9094 140.52C56.9094 146.331 57.9283 151.784 59.7354 155.876C61.5425 159.968 63.7795 162.061 66.1757 162.061C71.2547 162.061 75.3625 152.349 75.3227 140.456C75.3227 134.645 74.3037 129.191 72.4966 125.1C70.6895 121.008 68.4525 118.914 66.0563 118.914Z" fill="#231F20"/>
<path d="M278.816 151.076C278.1 152.811 276.261 154.96 271.5 154.976L205.219 155.207C198.436 155.207 196.685 156.895 193.158 152.477C189.632 148.058 184.282 125.689 177.483 118.803C170.685 111.916 165.662 112.211 159.667 122.457C153.673 132.702 158.258 155.374 158.258 155.374L88.0679 155.621C84.0397 152.588 86.0459 152.031 84.2547 142.637C82.4635 133.243 77.886 121.939 73.9057 117.505C69.9253 113.071 62.3307 111.741 56.5989 123.651C50.9229 135.441 54.354 153.408 54.4256 153.798L51.918 152.429C49.4024 151.052 48.1286 146.912 47.6271 144.699C47.1256 142.486 40.5818 139.747 40.5659 136.985C40.5659 135.727 40.4544 131.938 40.5659 127.695C40.5659 127.615 40.5659 127.528 40.5659 127.44C40.6087 124.122 40.9014 120.811 41.4416 117.537C41.4947 117.234 41.5583 116.94 41.6326 116.653C41.8178 115.745 42.1118 114.863 42.5083 114.026C45.0001 109.043 49.267 107.657 53.0325 106.527C56.7979 105.397 57.5303 100.421 64.0343 93.7897C70.5382 87.1584 79.7489 76.889 92.6931 74.6839C100.367 73.3624 126.208 72.2479 148.689 72.7574C171.998 73.2987 193.071 74.7953 203.101 78.4652C213.132 82.1352 231.943 100.453 231.943 100.453C231.943 100.453 248.151 105.604 261.398 111.041C264.996 112.521 267.966 114.026 269.685 115.435C271.271 116.87 272.532 118.626 273.387 120.586C277.065 128.22 278.577 140.488 279.103 145.981C279.27 147.772 279.334 148.862 279.334 148.862C279.311 149.627 279.135 150.38 278.816 151.076Z" fill="white"/>
<path d="M136.963 72.5982C140.88 72.5982 144.804 72.5982 148.633 72.7255C171.943 73.2669 193.015 74.7635 203.045 78.4334C213.076 82.1033 231.943 100.453 231.943 100.453C231.943 100.453 248.151 105.604 261.398 111.041C264.996 112.521 267.966 114.026 269.685 115.435C271.271 116.87 272.532 118.626 273.387 120.586C277.065 128.22 278.577 140.488 279.103 145.981C279.27 147.772 279.334 148.862 279.334 148.862C279.333 149.622 279.182 150.375 278.888 151.076C278.171 152.811 276.332 154.96 271.572 154.976L205.29 155.207C202.361 155.207 200.371 155.534 198.771 155.534C196.661 155.534 195.228 154.984 193.198 152.477C189.663 148.066 184.322 125.689 177.523 118.803C174.514 115.762 171.855 114.122 169.316 114.122C166.091 114.122 163.05 116.741 159.707 122.457C153.712 132.71 158.298 155.374 158.298 155.374L88.1077 155.621C84.0795 152.588 86.0856 152.031 84.2944 142.637C82.5033 133.243 77.9258 121.939 73.9454 117.505C73.1246 116.548 72.1146 115.77 70.9788 115.222C69.843 114.674 68.6061 114.367 67.3459 114.321C63.8591 114.321 59.9504 116.781 56.6387 123.651C50.9626 135.441 54.3937 153.408 54.4654 153.798L51.9577 152.429C49.4421 151.052 48.1684 146.912 47.6669 144.699C47.1653 142.486 40.6216 139.747 40.6057 136.985C40.6057 135.727 40.4942 131.938 40.6057 127.695C40.6057 127.615 40.6057 127.528 40.6057 127.44C40.6484 124.122 40.9412 120.811 41.4813 117.537C41.5344 117.234 41.5981 116.94 41.6724 116.653C41.8575 115.745 42.1515 114.863 42.5481 114.026C45.0398 109.043 49.3068 107.657 53.0722 106.527C56.8377 105.397 57.5701 100.421 64.074 93.7898C70.578 87.1584 79.7886 76.889 92.7329 74.6839C99.1015 73.5933 117.977 72.63 137.059 72.63M137.059 71.9056C118.868 71.9056 99.3483 72.8131 92.6135 73.9674C80.1867 76.0452 71.2706 85.2478 64.7666 91.9667L63.5168 93.2564C61.1711 95.6868 59.0847 98.3548 57.2915 101.217C55.6993 103.669 54.6087 105.285 52.8255 105.819C49.3386 106.853 44.5701 108.27 41.8555 113.692C41.4237 114.585 41.0978 115.525 40.8843 116.494C40.8126 116.788 40.741 117.091 40.6853 117.401C40.131 120.714 39.8355 124.065 39.8016 127.424V127.663C39.714 130.951 39.8016 133.944 39.8016 135.727C39.8016 136.269 39.8016 136.69 39.8016 136.985C39.8016 138.872 41.9192 140.48 43.9571 142.032C45.2468 143.019 46.7036 144.134 46.8788 144.866C47.428 147.254 48.7655 151.561 51.5279 153.066L53.1996 153.981L54.1071 154.467C54.1952 154.504 54.29 154.523 54.3858 154.523C54.4923 154.522 54.5975 154.498 54.6938 154.452C54.7902 154.407 54.8754 154.341 54.9437 154.259C55.0119 154.177 55.0614 154.081 55.0888 153.978C55.1162 153.875 55.1208 153.768 55.1022 153.663C54.9589 152.867 51.7428 135.353 57.2119 123.969C60.7624 116.597 64.6393 115.053 67.2663 115.053C68.4261 115.092 69.5646 115.375 70.6082 115.882C71.6518 116.39 72.5772 117.111 73.3245 117.999C77.1457 122.178 81.7151 133.291 83.5222 142.772C83.9633 145.092 84.261 147.437 84.4138 149.794C84.6288 152.795 84.7243 154.037 87.5982 156.202C87.7246 156.296 87.8784 156.347 88.036 156.346L158.234 156.099C158.341 156.099 158.446 156.076 158.543 156.03C158.639 155.985 158.724 155.919 158.791 155.836C158.86 155.753 158.909 155.655 158.936 155.551C158.962 155.446 158.964 155.337 158.943 155.231C158.895 155.008 154.477 132.718 160.264 122.823C163.449 117.386 166.298 114.862 169.244 114.862C171.481 114.862 173.925 116.279 176.934 119.328C180.914 123.308 184.473 133.1 187.347 140.934C189.345 146.387 191.064 151.091 192.553 152.954C194.782 155.733 196.478 156.274 198.667 156.274C199.383 156.274 200.156 156.218 201.055 156.147C202.225 156.059 203.555 155.956 205.195 155.948L271.476 155.717C276.611 155.717 278.641 153.328 279.437 151.362C279.775 150.567 279.946 149.711 279.939 148.847C279.939 148.847 279.875 147.716 279.708 145.933C279.103 139.564 277.55 127.822 273.92 120.283C273.027 118.227 271.699 116.388 270.027 114.894C268.372 113.533 265.522 112.012 261.557 110.388C249.17 105.285 233.989 100.389 232.246 99.832C230.454 98.0965 212.996 81.3311 203.252 77.7647C194.416 74.5804 176.544 72.6618 148.602 72.017C144.884 71.9295 140.951 71.8896 136.915 71.8896L137.059 71.9056Z" fill="#231F20"/>
<path d="M171.314 100.668L148.641 77.1516C148.641 77.1516 192.33 77.5497 202.385 81.5698C212.614 85.6617 225.885 100.477 225.885 100.477L171.314 100.668Z" fill="#4DB299"/>
<path d="M106.847 100.899L111.043 77.8124C111.043 77.8124 136.756 76.6183 142.703 77.701C148.649 78.7836 166.251 100.66 166.251 100.66L106.847 100.899Z" fill="#4DB299"/>
<path d="M104.467 100.907L108.662 77.8203C108.662 77.8203 91.2601 78.8473 85.5761 81.0842C76.0232 84.8497 63.7954 100.986 63.7954 100.986L104.467 100.907Z" fill="#4DB299"/>
<path d="M102.978 150.303C102.931 150.304 102.885 150.296 102.841 150.279C102.797 150.262 102.757 150.237 102.723 150.204C102.689 150.172 102.661 150.133 102.643 150.09C102.624 150.047 102.613 150 102.612 149.953C102.572 148.52 101.633 114.926 102.461 110.651C102.987 107.993 103.956 105.441 105.327 103.104C105.379 103.023 105.461 102.966 105.555 102.945C105.649 102.925 105.747 102.942 105.828 102.992C105.869 103.017 105.904 103.049 105.932 103.087C105.959 103.126 105.979 103.169 105.989 103.215C106 103.262 106.001 103.309 105.992 103.356C105.984 103.402 105.966 103.447 105.94 103.486C104.628 105.757 103.692 108.224 103.169 110.794C102.373 114.95 103.329 149.587 103.337 149.929C103.34 149.977 103.333 150.025 103.317 150.071C103.301 150.116 103.276 150.157 103.243 150.193C103.21 150.228 103.17 150.256 103.126 150.275C103.082 150.294 103.034 150.304 102.986 150.303H102.978Z" fill="#D1D3D4"/>
<path d="M216.754 111.2L185.906 111.311C183.987 111.311 187.769 117.799 192.044 119.583C196.319 121.366 216.157 121.175 217.152 119.63C218.147 118.086 219.142 112.712 216.754 111.2Z" fill="#4DB299"/>
<path d="M273.339 120.586C266.74 120.785 259.686 120.395 259.097 119.479C258.086 117.927 257.059 112.577 259.44 111.049H261.35C264.949 112.53 267.918 114.034 269.637 115.443C271.222 116.876 272.484 118.629 273.339 120.586Z" fill="#4DB299"/>
<path d="M46.011 116.637C46.011 116.637 45.7881 125.211 44.1641 126.461C43.0675 127.102 41.8202 127.44 40.5499 127.44C40.5927 124.122 40.8854 120.811 41.4256 117.537C41.4787 117.234 41.5424 116.94 41.6167 116.653L46.011 116.637Z" fill="#4DB299"/>
<path d="M93.2185 150.343C93.1214 150.343 93.0282 150.305 92.9596 150.236C92.8909 150.167 92.8523 150.074 92.8523 149.977C92.8523 149.88 92.8909 149.787 92.9596 149.718C93.0282 149.649 93.1214 149.611 93.2185 149.611L155.735 149.396C155.83 149.396 155.922 149.433 155.991 149.5C156.059 149.567 156.099 149.658 156.101 149.754C156.101 149.851 156.062 149.944 155.993 150.013C155.925 150.082 155.832 150.12 155.735 150.12L93.2185 150.343Z" fill="#D1D3D4"/>
<path d="M195.379 140.926C195.292 140.913 195.213 140.869 195.156 140.802C195.098 140.736 195.067 140.651 195.067 140.563C195.067 140.476 195.098 140.391 195.156 140.324C195.213 140.258 195.292 140.214 195.379 140.201L275.6 139.915C275.697 139.915 275.79 139.953 275.859 140.022C275.928 140.09 275.966 140.184 275.966 140.281C275.966 140.378 275.928 140.471 275.859 140.54C275.79 140.608 275.697 140.647 275.6 140.647L195.387 140.926H195.379Z" fill="#D1D3D4"/>
<path d="M199.551 151.354C199.551 151.354 194.384 145.288 196.518 144.866C198.651 144.444 219.126 147 219.755 148.05C220.185 149.079 220.401 150.184 220.392 151.298L199.551 151.354Z" fill="#231F20"/>
<path d="M199.551 151.752C199.493 151.752 199.436 151.74 199.383 151.715C199.331 151.69 199.285 151.654 199.248 151.609C198.556 150.813 195.132 146.665 195.666 145.113C195.728 144.944 195.835 144.796 195.975 144.684C196.116 144.572 196.284 144.5 196.462 144.476C197.863 144.19 219.19 146.315 220.113 147.828C220.583 148.918 220.818 150.095 220.806 151.283C220.806 151.388 220.764 151.489 220.689 151.564C220.615 151.639 220.513 151.681 220.408 151.681L199.567 151.752H199.551ZM197.465 145.201C197.175 145.192 196.884 145.211 196.597 145.256C196.454 145.256 196.43 145.336 196.422 145.376C196.143 146.172 198.15 149.07 199.734 150.948L219.978 150.877C219.97 149.966 219.778 149.067 219.413 148.234C218.41 147.446 201.915 145.201 197.465 145.201Z" fill="#231F20"/>
<path d="M278.816 151.075H269.709C269.691 149.962 269.903 148.856 270.33 147.827C270.593 147.382 274.493 146.625 279.031 145.949C279.198 147.74 279.262 148.831 279.262 148.831C279.266 149.601 279.114 150.365 278.816 151.075Z" fill="#231F20"/>
<path d="M269.709 151.505C269.657 151.506 269.605 151.496 269.557 151.475C269.509 151.455 269.466 151.424 269.43 151.386C269.356 151.312 269.313 151.212 269.311 151.107C269.291 149.921 269.522 148.744 269.988 147.652C270.131 147.414 270.457 146.856 278.975 145.59C279.029 145.58 279.083 145.582 279.136 145.596C279.188 145.609 279.237 145.635 279.278 145.67C279.362 145.737 279.417 145.834 279.429 145.941C279.596 147.74 279.66 148.838 279.66 148.838C279.659 149.658 279.497 150.47 279.182 151.227C279.152 151.299 279.101 151.36 279.036 151.404C278.971 151.448 278.895 151.472 278.816 151.474H269.709V151.505ZM278.673 146.41C272.854 147.294 270.879 147.875 270.64 148.082C270.299 148.908 270.121 149.792 270.115 150.685H278.538C278.747 150.108 278.857 149.5 278.864 148.886C278.864 148.886 278.808 148.003 278.673 146.41Z" fill="#231F20"/>
<path d="M263.969 136.061L214.692 136.237C214.245 136.217 213.817 136.051 213.474 135.763C213.131 135.475 212.894 135.082 212.797 134.644L210.823 127.265C210.425 125.776 211.372 124.256 212.702 124.248L261.979 124.073C262.431 124.097 262.862 124.27 263.205 124.565C263.548 124.861 263.783 125.261 263.874 125.704L265.848 133.076C266.246 134.533 265.299 136.061 263.969 136.061Z" fill="white"/>
<path d="M214.684 136.627C214.146 136.604 213.63 136.403 213.219 136.056C212.807 135.709 212.521 135.235 212.407 134.708L210.449 127.305C210.326 126.864 210.306 126.401 210.39 125.951C210.474 125.501 210.661 125.076 210.935 124.709C211.14 124.43 211.407 124.201 211.715 124.041C212.023 123.881 212.363 123.794 212.71 123.786L261.987 123.611C262.526 123.634 263.043 123.836 263.455 124.185C263.867 124.534 264.151 125.009 264.264 125.537L266.23 132.909C266.354 133.35 266.374 133.813 266.29 134.263C266.206 134.713 266.019 135.138 265.745 135.504C265.541 135.786 265.275 136.016 264.966 136.176C264.658 136.337 264.317 136.423 263.969 136.428L214.692 136.603L214.684 136.627ZM261.987 124.431L212.702 124.606C212.476 124.612 212.255 124.671 212.057 124.777C211.858 124.884 211.686 125.035 211.556 125.219C211.357 125.49 211.222 125.803 211.161 126.134C211.101 126.465 211.116 126.805 211.205 127.13L213.18 134.501C213.249 134.858 213.434 135.181 213.706 135.422C213.978 135.662 214.322 135.806 214.684 135.831L263.969 135.656C264.194 135.651 264.415 135.593 264.614 135.488C264.813 135.383 264.985 135.233 265.116 135.05C265.314 134.779 265.448 134.466 265.509 134.135C265.57 133.804 265.555 133.464 265.466 133.14L263.492 125.768C263.423 125.411 263.238 125.086 262.966 124.845C262.694 124.603 262.35 124.457 261.987 124.431Z" fill="#D1D3D4"/>
<path d="M114.816 110.539C114.023 110.539 113.262 110.225 112.7 109.666C112.137 109.106 111.819 108.347 111.815 107.554V107.403C111.817 107.307 111.856 107.216 111.925 107.149C111.993 107.082 112.085 107.044 112.181 107.044L128.23 106.981C128.328 106.986 128.421 107.026 128.493 107.092C128.559 107.16 128.596 107.252 128.596 107.347V107.482C128.597 107.875 128.521 108.265 128.371 108.628C128.222 108.992 128.002 109.322 127.725 109.601C127.448 109.88 127.119 110.101 126.756 110.253C126.393 110.404 126.004 110.482 125.611 110.483L114.824 110.523L114.816 110.539ZM112.555 107.753C112.616 108.31 112.88 108.826 113.297 109.2C113.715 109.575 114.255 109.782 114.816 109.783L125.603 109.743C126.164 109.74 126.704 109.529 127.118 109.151C127.533 108.773 127.793 108.255 127.848 107.697L112.555 107.753Z" fill="#D1D3D4"/>
<path d="M65.913 109.329C65.2687 109.33 64.6504 109.075 64.1935 108.621C63.9625 108.396 63.7793 108.128 63.6548 107.831C63.5303 107.534 63.4671 107.215 63.469 106.893V106.208C63.469 106.113 63.5065 106.021 63.5735 105.952C63.6404 105.884 63.7315 105.844 63.8273 105.842H73.8658C73.961 105.842 74.0523 105.88 74.1206 105.946C74.1552 105.979 74.1829 106.018 74.202 106.062C74.2211 106.106 74.2314 106.153 74.232 106.201V106.885C74.2341 107.534 73.9789 108.157 73.5223 108.618C73.0657 109.08 72.4449 109.341 71.796 109.345H65.921L65.913 109.329ZM64.1935 106.607V106.917C64.1956 107.372 64.3774 107.809 64.6994 108.131C65.0214 108.453 65.4576 108.634 65.913 108.637H71.7801C72.0131 108.639 72.2441 108.594 72.4592 108.505C72.6744 108.415 72.8693 108.283 73.0321 108.117C73.195 107.95 73.3225 107.752 73.4069 107.535C73.4914 107.318 73.531 107.086 73.5235 106.853V106.535L64.1935 106.607Z" fill="#D1D3D4"/>
<path d="M105.844 169.632C69.2964 169.632 41.5451 169.632 40.5659 169.577C40.4702 169.572 40.3799 169.531 40.3144 169.461C40.2489 169.391 40.2134 169.298 40.2156 169.202C40.2166 169.154 40.2274 169.106 40.2473 169.062C40.2673 169.018 40.296 168.978 40.3317 168.945C40.3674 168.913 40.4094 168.888 40.4551 168.872C40.5009 168.855 40.5494 168.849 40.5977 168.852C43.5512 168.972 284.198 168.852 286.586 168.852C286.634 168.852 286.682 168.862 286.726 168.88C286.771 168.898 286.811 168.925 286.845 168.959C286.879 168.993 286.906 169.034 286.924 169.078C286.943 169.123 286.952 169.17 286.952 169.218C286.952 169.266 286.943 169.314 286.924 169.358C286.906 169.403 286.879 169.443 286.845 169.477C286.811 169.511 286.771 169.538 286.726 169.557C286.682 169.575 286.634 169.585 286.586 169.585C280.042 169.585 176.512 169.632 105.844 169.632Z" fill="#231F20"/>
</svg>
