<svg width="219" height="210" viewBox="0 0 219 210" fill="none" xmlns="http://www.w3.org/2000/svg">
<path d="M132.128 158.72C134.967 158.917 137.197 155.98 139.005 153.317C136.667 156.844 139.683 161.864 142.276 164.231C144.517 166.134 147.092 167.603 149.87 168.564C154.196 170.297 158.826 171.146 163.485 171.059C168.168 170.956 172.703 169.401 176.463 166.609C180.768 163.1 183.612 158.112 184.439 152.62C185.228 147.157 184.616 141.583 182.661 136.421C182.14 134.764 181.31 133.22 180.215 131.872C178.605 130.239 176.587 129.065 174.37 128.473C171.395 127.52 168.289 127.04 165.165 127.049C160.823 127.049 157.719 126.764 153.819 124.966C150.779 123.525 147.608 122.381 144.349 121.548C138.268 120.064 130.704 120.143 128.091 126.98C125.478 133.817 122.668 158.072 132.128 158.72Z" fill="white"/>
<path d="M162.405 171.55C158.029 171.486 153.701 170.624 149.634 169.006C146.796 168.035 144.168 166.531 141.893 164.575C139.87 162.729 137.482 159.222 137.62 155.94C136.029 157.905 134.241 159.339 132.07 159.192C131.138 159.119 130.239 158.818 129.451 158.316C128.664 157.814 128.011 157.127 127.551 156.314C123.179 149.437 125.429 132.472 127.551 126.843C130.498 118.984 139.339 119.897 144.359 121.116C147.649 121.953 150.85 123.108 153.917 124.564C157.68 126.302 160.617 126.587 165.067 126.607H165.146C168.293 126.604 171.422 127.091 174.419 128.051C176.721 128.656 178.814 129.879 180.471 131.588C181.607 132.981 182.467 134.578 183.005 136.293C184.99 141.53 185.608 147.186 184.803 152.728C183.952 158.336 181.046 163.428 176.649 167.012C172.812 169.861 168.185 171.45 163.407 171.56L162.405 171.55ZM139.359 153.573C137.257 156.756 139.968 161.511 142.561 163.878C144.748 165.752 147.272 167.192 149.998 168.122C154.263 169.837 158.83 170.675 163.427 170.588C168.009 170.483 172.446 168.963 176.129 166.236C180.34 162.798 183.12 157.917 183.929 152.542C184.705 147.161 184.099 141.671 182.17 136.588C181.67 134.99 180.874 133.5 179.822 132.197C178.275 130.616 176.325 129.488 174.184 128.935C171.282 128.003 168.253 127.529 165.205 127.53H164.91C160.548 127.53 157.425 127.177 153.583 125.409C150.572 123.98 147.431 122.845 144.202 122.019C139.496 120.88 131.215 120.055 128.484 127.157C126.441 132.521 124.221 149.339 128.366 155.813C128.751 156.499 129.297 157.08 129.958 157.507C130.619 157.933 131.374 158.191 132.158 158.259C134.673 158.426 136.706 155.862 138.563 153.062C138.633 152.958 138.741 152.885 138.864 152.859C138.987 152.834 139.115 152.857 139.221 152.925C139.273 152.959 139.318 153.004 139.352 153.056C139.387 153.108 139.411 153.166 139.422 153.227C139.434 153.288 139.434 153.351 139.421 153.412C139.409 153.473 139.384 153.531 139.349 153.583L139.359 153.573Z" fill="#231F20"/>
<path d="M130.39 209.528H196.876C204.362 187.425 217.781 147.433 217.594 145.007C217.329 141.647 192.75 94.0315 182.141 86.5262C171.531 79.021 151.864 92.4794 151.864 92.4794L154.458 111.881L170.5 110.594L173.702 139.623C173.702 139.623 158.338 139.829 150.568 145.007C142.797 150.184 131.686 167.041 130.39 178.132C129.093 189.223 130.39 202.455 130.39 202.455V209.528Z" fill="white"/>
<path d="M196.876 210H130.39C130.265 210 130.145 209.95 130.056 209.862C129.968 209.773 129.918 209.653 129.918 209.528V202.455C129.918 202.367 128.631 189.125 129.918 178.073C131.244 166.677 142.424 149.869 150.312 144.614C157.385 139.898 170.372 139.25 173.172 139.161L170.077 111.105L154.487 112.362C154.367 112.369 154.249 112.33 154.157 112.253C154.064 112.177 154.003 112.069 153.986 111.95L151.393 92.5383C151.383 92.4513 151.397 92.3633 151.433 92.2836C151.469 92.204 151.527 92.1358 151.599 92.0864C155.146 89.7674 158.917 87.8124 162.857 86.2511C171.178 83.0093 177.936 82.9798 182.416 86.1431C192.976 93.609 217.781 141.323 218.066 144.967C218.243 147.335 206.887 181.462 197.328 209.676C197.297 209.771 197.236 209.853 197.155 209.911C197.074 209.97 196.976 210.001 196.876 210ZM130.861 209.047H196.532C209.745 170.057 217.251 146.735 217.162 145.046C216.877 141.44 192.348 94.2967 181.905 86.9191C172.307 80.1211 154.684 91.2219 152.434 92.7053L154.919 111.37L170.519 110.113C170.642 110.104 170.764 110.143 170.859 110.222C170.954 110.301 171.015 110.413 171.03 110.535L174.174 139.535C174.182 139.6 174.175 139.667 174.155 139.729C174.135 139.792 174.101 139.85 174.056 139.898C174.012 139.947 173.96 139.986 173.9 140.013C173.841 140.04 173.777 140.054 173.712 140.055C173.555 140.055 158.387 140.321 150.833 145.36C143.278 150.4 132.119 167.277 130.861 178.142C129.604 189.007 130.861 202.239 130.861 202.367V209.047Z" fill="#231F20"/>
<path d="M190.049 45.3358L180.137 145.989C180.06 146.779 179.829 147.546 179.456 148.247C179.083 148.947 178.575 149.567 177.961 150.071C177.348 150.574 176.642 150.952 175.882 151.182C175.122 151.412 174.325 151.49 173.535 151.412L151.638 149.251L6.83737 134.996C5.24293 134.84 3.77594 134.057 2.75902 132.819C1.74211 131.581 1.25856 129.989 1.41471 128.395L11.317 27.7416C11.392 26.9521 11.6222 26.1851 11.9945 25.4848C12.3667 24.7845 12.8736 24.1646 13.4861 23.6607C14.0986 23.1569 14.8046 22.7789 15.5635 22.5487C16.3225 22.3184 17.1194 22.2404 17.9086 22.319L97.834 30.1779L184.646 38.7343C186.236 38.8981 187.696 39.6843 188.708 40.9211C189.721 42.1579 190.203 43.745 190.049 45.3358Z" fill="#231F20"/>
<path d="M174.144 151.873H173.486L6.76867 135.429C5.06118 135.26 3.49058 134.42 2.40195 133.094C1.31333 131.767 0.795725 130.063 0.962881 128.356L10.8848 27.7023C10.9672 26.8559 11.2156 26.0341 11.6157 25.2838C12.0157 24.5335 12.5597 23.8693 13.2166 23.3292C13.8734 22.7892 14.6302 22.3838 15.4437 22.1363C16.2572 21.8888 17.1115 21.8039 17.9578 21.8867L184.646 38.3511C186.35 38.5226 187.918 39.3617 189.006 40.6852C190.094 42.0086 190.613 43.7088 190.452 45.4143L180.569 146.038C180.409 147.633 179.663 149.112 178.477 150.189C177.291 151.267 175.747 151.867 174.144 151.873ZM17.2996 22.7217C15.9133 22.7317 14.5797 23.2539 13.5551 24.1878C12.5306 25.1217 11.8874 26.4014 11.7493 27.7809L1.82737 128.434C1.67924 129.911 2.1238 131.387 3.06329 132.536C4.00279 133.686 5.36033 134.415 6.83744 134.564L173.555 150.979C175.036 151.125 176.514 150.677 177.665 149.734C178.816 148.791 179.546 147.43 179.695 145.95L189.617 45.2965C189.759 43.8173 189.31 42.3418 188.367 41.193C187.425 40.0442 186.065 39.3155 184.587 39.1665L17.8694 22.7511C17.6801 22.7313 17.49 22.7214 17.2996 22.7217Z" fill="#231F20"/>
<path d="M207.456 43.9212L185.776 142.708C185.606 143.483 185.285 144.218 184.831 144.869C184.377 145.521 183.799 146.076 183.13 146.504C182.461 146.932 181.715 147.224 180.933 147.363C180.152 147.502 179.35 147.486 178.575 147.315L157.14 142.59L14.9518 111.4C14.1725 111.231 13.4344 110.91 12.7801 110.455C12.1259 109.999 11.5684 109.418 11.1399 108.746C10.7115 108.074 10.4206 107.323 10.2841 106.537C10.1475 105.752 10.1681 104.947 10.3445 104.17L32.0351 5.4222C32.2037 4.64398 32.5247 3.90685 32.9796 3.25331C33.4345 2.59978 34.0143 2.04279 34.6856 1.61446C35.3568 1.18614 36.1063 0.894965 36.8906 0.757734C37.675 0.620502 38.4787 0.639931 39.2555 0.814901L117.698 18.0358L202.879 36.7008C203.653 36.8738 204.387 37.198 205.036 37.6546C205.686 38.1112 206.239 38.6914 206.664 39.362C207.089 40.0326 207.378 40.7804 207.514 41.5627C207.65 42.345 207.63 43.1464 207.456 43.9212Z" fill="#4DB299"/>
<path d="M179.891 148.131C179.402 148.132 178.915 148.079 178.437 147.973L14.8044 112.029C13.9431 111.84 13.1273 111.484 12.4038 110.98C11.6803 110.476 11.0632 109.834 10.5879 109.091C10.1126 108.349 9.78826 107.519 9.63356 106.651C9.47885 105.783 9.49677 104.893 9.68628 104.032L31.3966 5.27476C31.584 4.41379 31.9394 3.59824 32.4424 2.87481C32.9455 2.15139 33.5863 1.5343 34.3282 1.05889C35.07 0.583468 35.8984 0.259058 36.7658 0.104235C37.6333 -0.0505883 38.5227 -0.0327869 39.3832 0.156624L202.996 36.0621C204.731 36.4523 206.241 37.511 207.199 39.0082C208.158 40.5054 208.487 42.3203 208.115 44.0586L186.434 142.855C186.105 144.347 185.278 145.683 184.089 146.642C182.9 147.601 181.419 148.126 179.891 148.131ZM37.9097 1.34529C36.6898 1.34687 35.5071 1.76578 34.5582 2.53242C33.6093 3.29907 32.9512 4.36729 32.6933 5.55964L11.0027 104.356C10.7014 105.745 10.9622 107.196 11.728 108.392C12.4938 109.589 13.7024 110.434 15.0893 110.742L178.752 146.657C180.143 146.961 181.598 146.7 182.797 145.932C183.996 145.164 184.841 143.951 185.147 142.561L206.798 43.7737C207.099 42.3839 206.837 40.9315 206.069 39.7346C205.301 38.5378 204.09 37.694 202.702 37.3883L39.0787 1.473C38.695 1.38691 38.3029 1.34408 37.9097 1.34529Z" fill="#231F20"/>
<path d="M65.0609 49.3467L50.4569 46.1412C47.8762 45.5747 45.3248 47.2076 44.7584 49.7884L42.3152 60.9188C41.7488 63.4996 43.3817 66.0509 45.9624 66.6174L60.5664 69.823C63.1472 70.3894 65.6985 68.7565 66.265 66.1758L68.7081 55.0453C69.2746 52.4645 67.6417 49.9132 65.0609 49.3467Z" fill="white"/>
<path d="M49.4328 46.0332C49.7632 46.0336 50.0926 46.0699 50.4152 46.1412L65.023 49.3437C65.6427 49.472 66.2307 49.722 66.7531 50.0791C67.2755 50.4363 67.7218 50.8935 68.0663 51.4244C68.4107 51.9552 68.6465 52.5491 68.7598 53.1717C68.8731 53.7942 68.8618 54.4331 68.7265 55.0513L66.2903 66.1717C66.0555 67.2374 65.4641 68.1911 64.6139 68.8752C63.7636 69.5593 62.7055 69.9329 61.6142 69.9341C61.2677 69.9317 60.9222 69.8955 60.5827 69.8261L45.9847 66.6137C45.3705 66.4798 44.7887 66.2262 44.2726 65.8673C43.7565 65.5085 43.3161 65.0514 42.9767 64.5222C42.6373 63.9931 42.4056 63.4022 42.2946 62.7834C42.1837 62.1647 42.1959 61.5301 42.3303 60.916L44.7764 49.7956C45.0112 48.7299 45.6026 47.7762 46.4528 47.0921C47.303 46.408 48.3612 46.0344 49.4525 46.0332M49.4525 45.3062C48.1976 45.3134 46.9821 45.7456 46.0044 46.5324C45.0267 47.3192 44.3445 48.4141 44.0691 49.6384L41.623 60.7588C41.3104 62.1866 41.5778 63.6801 42.3663 64.9107C43.1548 66.1413 44.3998 67.0084 45.8276 67.321L60.4255 70.5334C60.8166 70.6147 61.2147 70.6575 61.6142 70.6611C62.8691 70.6539 64.0846 70.2217 65.0623 69.4349C66.04 68.6481 66.7222 67.5532 66.9976 66.3289L69.4338 55.2085C69.7466 53.7795 69.4796 52.2848 68.6912 51.0526C67.9029 49.8204 66.6578 48.9514 65.2293 48.6364L50.6313 45.4339C50.2444 45.3473 49.849 45.3044 49.4525 45.3062Z" fill="#231F20"/>
<path d="M53.3574 46.783L48.8629 67.2593L49.8224 67.4699L54.3169 46.9937L53.3574 46.783Z" fill="#D1D3D4"/>
<path d="M61.1991 48.5032L56.7046 68.9795L57.6641 69.1901L62.1586 48.7139L61.1991 48.5032Z" fill="#D1D3D4"/>
<path d="M44.863 49.3178L44.6524 50.2773L68.6021 55.5343L68.8127 54.5747L44.863 49.3178Z" fill="#D1D3D4"/>
<path d="M42.4187 60.465L42.2081 61.4246L66.1579 66.6815L66.3685 65.722L42.4187 60.465Z" fill="#D1D3D4"/>
<path d="M44.0948 52.8364L43.8842 53.7959L51.474 55.4619L51.6846 54.5023L44.0948 52.8364Z" fill="#D1D3D4"/>
<path d="M43.1966 56.9238L42.986 57.8833L50.5759 59.5493L50.7865 58.5897L43.1966 56.9238Z" fill="#D1D3D4"/>
<path d="M59.9936 56.3066L59.7767 57.2949L67.8271 59.062L68.044 58.0737L59.9936 56.3066Z" fill="#D1D3D4"/>
<path d="M59.0978 60.394L58.8809 61.3823L66.9313 63.1494L67.1482 62.1611L59.0978 60.394Z" fill="#D1D3D4"/>
<path d="M59.3813 78.0493L42.8391 74.4183C41.0003 74.0147 39.1824 75.1782 38.7788 77.017L38.5808 77.919C38.1771 79.7579 39.3406 81.5758 41.1795 81.9794L57.7217 85.6104C59.5606 86.014 61.3784 84.8505 61.7821 83.0116L61.98 82.1097C62.3837 80.2708 61.2202 78.4529 59.3813 78.0493Z" fill="white"/>
<path d="M90.6075 84.8977L74.0653 81.2667C72.2265 80.8631 70.4086 82.0266 70.0049 83.8654L69.807 84.7674C69.4033 86.6062 70.5668 88.4241 72.4057 88.8278L88.9479 92.4588C90.7867 92.8624 92.6046 91.6989 93.0083 89.86L93.2062 88.9581C93.6099 87.1192 92.4464 85.3013 90.6075 84.8977Z" fill="white"/>
<path d="M121.831 91.7581L105.289 88.1271C103.45 87.7234 101.633 88.8869 101.229 90.7258L101.031 91.6277C100.627 93.4666 101.791 95.2845 103.63 95.6881L120.172 99.3191C122.011 99.7227 123.829 98.5592 124.232 96.7204L124.43 95.8184C124.834 93.9796 123.67 92.1617 121.831 91.7581Z" fill="white"/>
<path d="M153.065 98.6182L136.523 94.9872C134.684 94.5836 132.866 95.747 132.463 97.5859L132.265 98.4879C131.861 100.327 133.024 102.145 134.863 102.548L151.405 106.179C153.244 106.583 155.062 105.419 155.466 103.58L155.664 102.679C156.067 100.84 154.904 99.0218 153.065 98.6182Z" fill="white"/>
<path d="M81.3991 106.272C81.3537 106.281 81.307 106.281 81.2616 106.272L34.609 96.0161C34.4494 95.9633 34.3151 95.853 34.2323 95.7067C34.1494 95.5605 34.1239 95.3886 34.1606 95.2246C34.1973 95.0605 34.2937 94.916 34.431 94.819C34.5684 94.722 34.7368 94.6795 34.9037 94.6998L81.5465 104.936C81.6336 104.955 81.7162 104.99 81.7895 105.041C81.8628 105.092 81.9254 105.156 81.9738 105.231C82.0221 105.306 82.0553 105.389 82.0713 105.477C82.0873 105.565 82.0859 105.654 82.0671 105.742C82.0317 105.892 81.9465 106.027 81.8253 106.123C81.7041 106.219 81.5539 106.272 81.3991 106.272Z" fill="#231F20"/>
<path d="M101.037 110.585H100.889L93.6885 109.003C93.5934 108.994 93.5014 108.964 93.4185 108.917C93.3356 108.869 93.2637 108.805 93.2075 108.727C93.1513 108.65 93.112 108.562 93.0923 108.469C93.0725 108.375 93.0728 108.278 93.093 108.185C93.1132 108.092 93.1529 108.004 93.2095 107.927C93.2661 107.85 93.3384 107.786 93.4215 107.739C93.5046 107.692 93.5968 107.663 93.6919 107.654C93.787 107.645 93.8829 107.656 93.9734 107.687L101.184 109.268C101.344 109.307 101.484 109.403 101.578 109.538C101.672 109.673 101.714 109.837 101.696 110.001C101.678 110.164 101.601 110.316 101.48 110.427C101.359 110.538 101.201 110.601 101.037 110.604V110.585Z" fill="#231F20"/>
<path d="M116.018 113.866H115.88L108.679 112.284C108.505 112.244 108.354 112.137 108.258 111.986C108.163 111.835 108.13 111.653 108.169 111.478C108.187 111.392 108.223 111.309 108.274 111.236C108.324 111.163 108.389 111.101 108.464 111.054C108.539 111.006 108.623 110.974 108.71 110.959C108.798 110.944 108.888 110.947 108.974 110.968L116.175 112.549C116.344 112.577 116.496 112.668 116.6 112.804C116.704 112.941 116.751 113.112 116.732 113.282C116.713 113.453 116.629 113.609 116.498 113.72C116.367 113.83 116.199 113.886 116.027 113.875L116.018 113.866Z" fill="#231F20"/>
<path d="M101.636 115.388C101.462 115.384 101.294 115.318 101.164 115.202C101.099 115.138 101.047 115.061 101.012 114.977C100.976 114.892 100.958 114.802 100.958 114.71C100.958 114.619 100.976 114.528 101.012 114.444C101.047 114.36 101.099 114.283 101.164 114.219L107.972 107.077C108.035 107.011 108.112 106.958 108.196 106.922C108.28 106.885 108.371 106.867 108.463 106.867C108.555 106.867 108.646 106.885 108.731 106.922C108.815 106.958 108.891 107.011 108.954 107.077C109.022 107.14 109.076 107.216 109.114 107.3C109.151 107.385 109.17 107.476 109.17 107.569C109.17 107.661 109.151 107.752 109.114 107.837C109.076 107.921 109.022 107.997 108.954 108.06L102.127 115.172C102.065 115.24 101.989 115.294 101.904 115.332C101.82 115.369 101.728 115.388 101.636 115.388Z" fill="#231F20"/>
<path d="M131.205 174.114C131.205 174.114 144.104 132.324 143.328 123.787C142.551 115.251 137.895 90.1511 145.656 83.1665C153.416 76.1819 159.104 75.6809 164.016 86.7816C168.928 97.8824 170.49 152.767 170.49 152.767" fill="white"/>
<path d="M131.205 174.585H131.068C131.008 174.567 130.953 174.538 130.905 174.499C130.857 174.459 130.817 174.411 130.788 174.356C130.759 174.301 130.741 174.241 130.735 174.179C130.729 174.118 130.735 174.055 130.753 173.996C130.881 173.574 143.612 132.196 142.856 123.895C142.738 122.599 142.532 120.948 142.286 118.983C140.901 107.755 138.573 88.9722 145.341 82.8913C149.87 78.8145 153.416 77.2231 156.491 77.8812C159.566 78.5394 162.13 81.4079 164.458 86.7225C169.37 97.8036 170.903 150.645 170.971 152.885C170.974 152.947 170.964 153.009 170.942 153.068C170.92 153.126 170.886 153.179 170.843 153.224C170.8 153.269 170.748 153.305 170.691 153.329C170.634 153.354 170.572 153.366 170.51 153.366C170.447 153.372 170.384 153.364 170.325 153.344C170.265 153.324 170.211 153.291 170.164 153.249C170.118 153.206 170.081 153.154 170.056 153.097C170.031 153.039 170.018 152.977 170.018 152.914C170.018 152.364 168.417 98.0198 163.594 87.0958C161.403 82.1251 159.016 79.4236 156.295 78.844C153.574 78.2644 150.253 79.8263 145.97 83.6379C139.575 89.3848 141.952 108.59 143.229 118.905C143.475 120.87 143.681 122.549 143.799 123.866C144.575 132.403 132.187 172.66 131.657 174.369C131.61 174.445 131.543 174.506 131.463 174.544C131.383 174.582 131.293 174.597 131.205 174.585Z" fill="#231F20"/>
</svg>
