<svg id="Layer_1" data-name="Layer 1" xmlns="http://www.w3.org/2000/svg" viewBox="0 0 128.77 178"><defs><style>.cls-1{fill:#4db299;}.cls-1,.cls-2,.cls-4{stroke:#000;stroke-miterlimit:10;}.cls-3{fill:#fff;fill-opacity:0;}.cls-4{stroke-width:2px;}</style></defs><path class="cls-1" d="M305.29,176.4l-.84.54-.41-.64-10,6.37-32.33,20.61L229,183l-10.75-6.66-.1.09-.39.34h0a59.89,59.89,0,0,0-19.89,44.35,58.94,58.94,0,0,0,9.63,32.27l.1-.07,5-3.33,2.9-2,2-1.32c-.41-.63-.81-1.28-1.19-1.93a47,47,0,0,1,3.95-53.13l41.58,25.76,41.12-26.21a47,47,0,0,1,4.3,53.6c-.39.67-.79,1.33-1.22,2l2,1.25,2.94,1.87,5.06,3.22.16.1a58.89,58.89,0,0,0,9.52-32.11A59.9,59.9,0,0,0,305.29,176.4Zm-94,71.67" transform="translate(-197.37 -159.45)"/><path class="cls-2" d="M300.34,172.42a65.95,65.95,0,0,0-78.12.69,2.33,2.33,0,0,0-.32.25l11.26,6.76a53,53,0,0,1,16.24-6.76,54.79,54.79,0,0,1,24.7,0,52.87,52.87,0,0,1,16.19,6.73l10.45-6.72A4.66,4.66,0,0,1,300.34,172.42Z" transform="translate(-197.37 -159.45)"/><path class="cls-3" d="M218.86,248.81l-.52-.74H220l-1,.69Z" transform="translate(-197.37 -159.45)"/><path class="cls-3" d="M285.14,278.11l-23.51,35.68L238.16,278a66.46,66.46,0,0,0,47,.08Z" transform="translate(-197.37 -159.45)"/><path class="cls-4" d="M308.15,254.12l-5.07-3.23.12-.17-.13.16a53.55,53.55,0,0,1-82.69-.07l-.57-.72.51.76-5,3.34-4.94,3.31-.46-.6.41.63,51.27,78.1,51.4-78,.2-.3Zm-46.4,28.24a66.06,66.06,0,0,0,23.39-4.25l-23.51,35.68L238.16,278A65.76,65.76,0,0,0,261.75,282.36Z" transform="translate(-197.37 -159.45)"/></svg>